Coordinates
nRows=5
nColumns=24

# SIMM Motion File Header:
name Coordinates
datacolumns 24
datarows 5
otherdata 1
range 0.17166999999999999000 0.17566999999999999000
endheader
time	pelvis_tx	pelvis_ty	pelvis_tz	pelvis_tilt	pelvis_list	pelvis_rotation	hip_flexion_r	hip_adduction_r	hip_rotation_r	knee_angle_r	ankle_angle_r	subtalar_angle_r	mtp_angle_r	hip_flexion_l	hip_adduction_l	hip_rotation_l	knee_angle_l	ankle_angle_l	subtalar_angle_l	mtp_angle_l	lumbar_extension	lumbar_bending	lumbar_rotation
      0.17166999999999999000	      0.84860201510823541000	      0.67289300818235409000	     -0.30642438809940697000	      7.25657069243682160000	      7.65873899288185010000	     -5.75784568387704620000	     -2.27608825450600040000	    -11.53730588127700700000	    -11.36992251869097000000	    -63.51035613751436400000	    -10.66767082303800900000	      0.00000000000000081262	     -0.00000000000000123332	      9.55156983554767790000	     13.24112573533174200000	     -6.00445603516395550000	    -21.75908002206957900000	      5.82721650931763690000	      0.00000000000001251189	     -0.00000000000001645306	    -22.30040353028159200000	    -13.04060310959183300000	      5.42262390202734410000
      0.17266999999999999000	      0.84969353645202605000	      0.67314481762988487000	     -0.30647726913878165000	      7.23916803391726570000	      7.64994593143604100000	     -5.75777721931321820000	     -2.04624436327079540000	    -11.54804483391757100000	    -11.11635485750843200000	    -63.62930123933141100000	    -10.51746801651998100000	      0.00000000000000083068	     -0.00000000000000126634	      9.43354012344141250000	     13.22704394647541900000	     -6.23370822366883900000	    -21.69171879634624000000	      5.90384857688836730000	      0.00000000000001257799	     -0.00000000000001686920	    -22.26916837061879000000	    -12.93092339912550200000	      5.24695795404108800000
      0.17366999999999999000	      0.85078514038210917000	      0.67340155215568964000	     -0.30653558925007846000	      7.22534767802076590000	      7.64486806626408910000	     -5.75443890067171980000	     -1.82297585081934680000	    -11.56350137607717500000	    -10.86499835192672600000	    -63.73715723484921400000	    -10.40678388190090200000	      0.00000000000000086605	     -0.00000000000000132236	      9.31144436278315270000	     13.21852148166916600000	     -6.45885250582412950000	    -21.62299259756599700000	      5.97708596980160590000	      0.00000000000001263079	     -0.00000000000001725113	    -22.24264822033270800000	    -12.82361146230535100000	      5.06502455362814970000
      0.17466999999999999000	      0.85187679942515271000	      0.67366161139706315000	     -0.30659759498831501000	      7.21394406143976940000	      7.64229793367026300000	     -5.74888277770204770000	     -1.60415093909463650000	    -11.58214124650798900000	    -10.61513952404536500000	    -63.83750790771079400000	    -10.32282051873977700000	      0.00000000000000091316	     -0.00000000000000139403	      9.18660556767230930000	     13.21375413447035600000	     -6.68121074782395660000	    -21.55334725918425700000	      6.04803327998002870000	      0.00000000000001267459	     -0.00000000000001760974	    -22.21931109821469300000	    -12.71789249724412800000	      4.87884940109733200000
      0.17566999999999999000	      0.85296827548928822000	      0.67392208843339718000	     -0.30666390355140055000	      7.20248524955060890000	      7.64024061295907670000	     -5.74031887672595430000	     -1.38742674632346370000	    -11.60106116262359400000	    -10.36663553917894400000	    -63.93115545016939200000	    -10.24981116924466700000	      0.00000000000000094863	     -0.00000000000000144563	      9.06182677854744510000	     13.21033603134822500000	     -6.89994416973263560000	    -21.48397878434773400000	      6.11858220293879730000	      0.00000000000001273048	     -0.00000000000001799081	    -22.19643212637979700000	    -12.61116162012859100000	      4.68913636429530280000
